<?xml version="1.0" encoding="UTF-8" standalone="no"?><!DOCTYPE svg PUBLIC "-//W3C//DTD SVG 1.1//EN" "http://www.w3.org/Graphics/SVG/1.1/DTD/svg11.dtd"><svg width="100%" height="100%" viewBox="0 0 16 16" version="1.1" xmlns="http://www.w3.org/2000/svg" xmlns:xlink="http://www.w3.org/1999/xlink" xml:space="preserve" xmlns:serif="http://www.serif.com/" style="fill-rule:evenodd;clip-rule:evenodd;stroke-linejoin:round;stroke-miterlimit:2;"><path d="M12,14L12,15.5L11.5,16L0.5,16L0,15.5L0,2.5L0.5,2L2,2L2,0.5L2.5,0L13.5,0L14,0.5L14,13.5L13.5,14L12,14ZM11,15L11,3L9,3L9,15L11,15ZM8,15L8,3L1,3L1,15L8,15ZM13,13L12,13L12,2.5L11.501,1.999L11,2L10.992,0.999L13,1L13,13ZM10,2L3,2L3,1L10,1L10,2Z" style="fill:rgb(197,197,197);"/><path d="M11,3L9,3L9,15L11,15L11,3ZM11.5,2L12,2.5L12,13L13,13L13,1L10.992,0.999L11,2L11.5,2Z" style="fill:rgb(50,126,54)"/></svg>