<?xml version="1.0" encoding="UTF-8" standalone="no"?><!DOCTYPE svg PUBLIC "-//W3C//DTD SVG 1.1//EN" "http://www.w3.org/Graphics/SVG/1.1/DTD/svg11.dtd"><svg width="16px" height="16px" viewBox="0 0 16 16" version="1.1" xmlns="http://www.w3.org/2000/svg" xmlns:xlink="http://www.w3.org/1999/xlink" xml:space="preserve" xmlns:serif="http://www.serif.com/" style="fill-rule:evenodd;clip-rule:evenodd;stroke-linejoin:round;stroke-miterlimit:2;"><path d="M11.5,12.843L9,10.343L8.293,11.05L10.414,13.172L8.293,15.293L9,16L11.5,13.5L11.5,12.843ZM6.999,15.001L1.499,15.001L0.999,14.501L0.999,1.499L1.499,0.999L12.501,0.999L13.001,1.499L12.995,6.999L11.995,6.999L12.001,1.999L9.992,1.999L9.992,7.999L9.007,7.999L9.007,1.999L2.009,1.999L1.999,14.001L6.999,14.001L6.999,15.001ZM12.293,11.157L14.793,13.657L15.5,12.95L13.379,10.828L15.5,8.707L14.793,8L12.293,10.5L12.293,11.157Z" style="fill:rgb(66,66,66);"/></svg>