<?xml version="1.0" encoding="UTF-8" standalone="no"?><!DOCTYPE svg PUBLIC "-//W3C//DTD SVG 1.1//EN" "http://www.w3.org/Graphics/SVG/1.1/DTD/svg11.dtd"><svg width="16px" height="16px" viewBox="0 0 16 16" version="1.1" xmlns="http://www.w3.org/2000/svg" xmlns:xlink="http://www.w3.org/1999/xlink" xml:space="preserve" xmlns:serif="http://www.serif.com/" style="fill-rule:evenodd;clip-rule:evenodd;stroke-linejoin:round;stroke-miterlimit:2;"><path d="M15.5,8L8.5,8L8,8.5L8,15.5L8.5,16L15.5,16L16,15.5L16,8.5L15.5,8ZM15,15L9,15L9,9L15,9L15,15ZM6.995,14.002L0.5,14.002L0,13.502L0.011,2.5L0.511,2L5.507,2L5.861,2.146L6.713,2.999L13.501,2.999L14.001,3.499L13.997,7L12.99,7L12.99,6.003L6.708,6.003L5.85,6.861L5.496,7.007L1.011,7.007L1,13.002L6.995,13.002L6.995,14.002ZM13.204,11.698L11.706,10.2L11,10.906L12.119,12.026L11,13.145L11.706,13.852L13.204,12.354L13.204,11.698ZM6.506,3.999L6.153,3.853L5.3,3L1.011,3L1.011,6.007L5.289,6.007L6.147,5.15L6.501,5.003L13.001,5.003L13.001,3.999L6.506,3.999Z" style="fill:rgb(197,197,197);"/></svg>