<?xml version="1.0" encoding="UTF-8" standalone="no"?><!DOCTYPE svg PUBLIC "-//W3C//DTD SVG 1.1//EN" "http://www.w3.org/Graphics/SVG/1.1/DTD/svg11.dtd"><svg width="16px" height="16px" viewBox="0 0 16 16" version="1.1" xmlns="http://www.w3.org/2000/svg" xmlns:xlink="http://www.w3.org/1999/xlink" xml:space="preserve" xmlns:serif="http://www.serif.com/" style="fill-rule:evenodd;clip-rule:evenodd;stroke-linejoin:round;stroke-miterlimit:2;"><path d="M6.995,14.002L0.5,14.002L0,13.502L0.011,2.5L0.511,2L5.507,2L5.861,2.146L6.713,2.999L13.501,2.999L14.001,3.499L13.997,8L12.99,8L12.99,6.003L6.708,6.003L5.85,6.861L5.496,7.007L1.011,7.007L1,13.002L6.995,13.002L6.995,14.002ZM6.506,3.999L6.153,3.853L5.3,3L1.011,3L1.011,6.007L5.289,6.007L6.147,5.15L6.501,5.003L13.001,5.003L13.001,3.999L6.506,3.999Z" style="fill:rgb(66,66,66);"/><g transform="matrix(0.285714,0,0,0.285714,8,9.22231)"><path d="M24.218,7.032C25.338,6.83 26.788,6.977 27.413,7.399L28,7.803L27.908,8.005C27.769,8.284 27.693,8.426 27.656,8.493L27.633,8.538C26.586,10.521 24.567,10.539 23.63,10.521C21.243,16.267 16.157,19.444 9.272,19.444C6.096,19.444 3.654,18.471 2.038,16.543C-0.11,14.027 -0.11,10.722 0.074,9.676L0.11,9.456L19.132,9.456C20.105,9.474 20.858,9.199 21.243,8.997C20.876,8.409 20.748,7.748 20.711,7.381C20.619,6.334 20.876,5.233 21.409,4.443L21.813,3.837L22.418,4.241C23.483,5.067 24.071,5.986 24.218,7.032ZM15.295,2.625L12.412,2.625L12.412,0L15.295,0L15.295,2.625ZM15.295,5.783L12.412,5.783L12.412,3.158L15.295,3.158L15.295,5.783ZM11.88,5.783L8.997,5.783L8.997,3.158L11.88,3.158L11.88,5.783ZM8.464,5.783L5.582,5.783L5.582,3.158L8.464,3.158L8.464,5.783ZM5.049,8.942L2.167,8.942L2.167,6.298L5.049,6.298L5.049,8.942ZM8.464,8.942L5.582,8.942L5.582,6.298L8.464,6.298L8.464,8.942ZM11.88,8.942L8.997,8.942L8.997,6.298L11.88,6.298L11.88,8.942ZM15.295,8.942L12.412,8.942L12.412,6.298L15.295,6.298L15.295,8.942ZM18.728,8.942L15.827,8.942L15.827,6.298L18.728,6.298L18.728,8.942ZM17.7,18.856C17.902,18.856 18.067,18.691 18.067,18.489C18.067,18.287 17.902,18.122 17.7,18.122C17.498,18.122 17.333,18.287 17.333,18.489C17.333,18.691 17.498,18.856 17.7,18.856ZM17.7,18.783C17.535,18.783 17.424,18.654 17.424,18.489C17.424,18.324 17.535,18.195 17.7,18.195C17.865,18.195 17.975,18.324 17.975,18.489C17.975,18.654 17.865,18.783 17.7,18.783ZM17.553,18.673L17.645,18.673L17.645,18.507L17.681,18.507C17.718,18.507 17.755,18.526 17.755,18.563C17.763,18.579 17.767,18.595 17.772,18.609C17.777,18.628 17.781,18.644 17.792,18.654L17.883,18.654C17.883,18.636 17.883,18.618 17.865,18.563C17.847,18.507 17.828,18.489 17.792,18.471C17.828,18.452 17.865,18.416 17.865,18.379C17.865,18.342 17.847,18.324 17.828,18.305C17.813,18.305 17.801,18.302 17.787,18.299C17.767,18.294 17.743,18.287 17.7,18.287C17.657,18.287 17.626,18.294 17.601,18.299C17.583,18.302 17.568,18.305 17.553,18.305L17.553,18.673ZM17.681,18.471L17.645,18.471L17.645,18.361L17.7,18.361C17.755,18.361 17.773,18.379 17.773,18.416C17.773,18.452 17.736,18.471 17.681,18.471Z" style="fill:rgb(36,150,237);"/></g></svg>