<?xml version="1.0" encoding="UTF-8" standalone="no"?><!DOCTYPE svg PUBLIC "-//W3C//DTD SVG 1.1//EN" "http://www.w3.org/Graphics/SVG/1.1/DTD/svg11.dtd"><svg width="16px" height="16px" viewBox="0 0 16 16" version="1.1" xmlns="http://www.w3.org/2000/svg" xmlns:xlink="http://www.w3.org/1999/xlink" xml:space="preserve" xmlns:serif="http://www.serif.com/" style="fill-rule:evenodd;clip-rule:evenodd;stroke-linejoin:round;stroke-miterlimit:2;"><path d="M6.995,14.002L0.5,14.002L0,13.502L0.011,2.5L0.511,2L5.507,2L5.861,2.146L6.713,2.999L13.501,2.999L14.001,3.499L13.997,8L12.99,8L12.99,6.003L6.708,6.003L5.85,6.861L5.496,7.007L1.011,7.007L1,13.002L6.995,13.002L6.995,14.002ZM6.506,3.999L6.153,3.853L5.3,3L1.011,3L1.011,6.007L5.289,6.007L6.147,5.15L6.501,5.003L13.001,5.003L13.001,3.999L6.506,3.999Z" style="fill:rgb(66,66,66);"/><path d="M11.536,8L15,10L15,13.999L11.536,15.999L8.073,13.999L8.073,10L11.536,8ZM8.939,13.499L11.135,14.767L11.135,12.267L8.939,10.999L8.939,13.499ZM14.135,10.999L12,12.231L12,14.732L14.135,13.499L14.135,10.999ZM9.372,10.249L11.537,11.499L13.702,10.249L11.537,8.999L9.372,10.249Z" style="fill:rgb(66,66,66);"/></svg>