<?xml version="1.0" encoding="UTF-8" standalone="no"?><!DOCTYPE svg PUBLIC "-//W3C//DTD SVG 1.1//EN" "http://www.w3.org/Graphics/SVG/1.1/DTD/svg11.dtd"><svg width="16px" height="16px" viewBox="0 0 16 16" version="1.1" xmlns="http://www.w3.org/2000/svg" xmlns:xlink="http://www.w3.org/1999/xlink" xml:space="preserve" xmlns:serif="http://www.serif.com/" style="fill-rule:evenodd;clip-rule:evenodd;"><path d="M7.001,14L0.5,14L0,13.5L0,2.5L0.5,2L5.5,2L5.854,2.146L6.707,3L12.5,3L13,3.5L13,6L15.151,6L15.634,6.629L15.494,7L8.707,7L7.854,7.854L7.5,8L2.86,8L1.193,13L7.001,13L7.001,14ZM5.293,3L1,3L1,10.417L2.025,7.342L2.5,7L7.293,7L8.146,6.146L8.5,6L12,6L12,4L6.5,4L6.146,3.854L5.293,3Z" style="fill:rgb(66,66,66);fill-rule:nonzero;"/><g transform="matrix(0.0113812,0,0,0.0113812,7.81418,6.106)"><path d="M365.313,184.813C359.099,185.125 353.011,186.666 347.406,189.344L103.063,306.094C90.26,312.208 80.944,323.792 77.781,337.531L17.5,599.781C14.689,611.984 16.979,624.81 23.844,635.313C24.668,636.584 25.554,637.815 26.5,639L195.625,849.281C204.487,860.296 217.948,866.722 232.156,866.719L503.375,866.656C517.578,866.667 531.038,860.253 539.906,849.25L708.969,638.938C717.836,627.917 721.164,613.465 718,599.719L657.625,337.469C654.462,323.729 645.146,312.145 632.344,306.031L387.969,189.344C380.919,185.976 373.128,184.417 365.313,184.813Z" style="fill:rgb(50,108,229);fill-rule:nonzero;"/><path d="M367.734,274.06C359.657,274.06 353.108,281.336 353.109,290.31C353.109,290.447 353.137,290.579 353.14,290.716C353.128,291.935 353.069,293.404 353.109,294.466C353.301,299.642 354.43,303.603 355.109,308.372C356.339,318.579 357.37,327.039 356.734,334.903C356.115,337.869 353.931,340.581 351.984,342.466L351.64,348.653C342.863,349.381 334.028,350.712 325.202,352.716C287.228,361.338 254.532,380.899 229.64,407.31C228.025,406.208 225.199,404.18 224.359,403.56C221.747,403.912 219.108,404.718 215.671,402.716C209.126,398.31 203.165,392.229 195.952,384.903C192.647,381.399 190.254,378.062 186.327,374.685C185.436,373.918 184.075,372.88 183.077,372.091C180.007,369.643 176.387,368.367 172.89,368.247C168.394,368.093 164.066,369.851 161.234,373.403C156.198,379.719 157.81,389.371 164.827,394.966C164.899,395.023 164.974,395.067 165.046,395.122C166.01,395.904 167.191,396.905 168.077,397.56C172.244,400.636 176.051,402.211 180.202,404.653C188.949,410.055 196.201,414.534 201.952,419.935C204.198,422.329 204.591,426.548 204.89,428.372L209.577,432.56C184.484,470.323 172.871,516.969 179.734,564.497L173.609,566.278C171.994,568.363 169.713,571.643 167.327,572.622C159.802,574.992 151.333,575.863 141.109,576.935C136.308,577.334 132.166,577.096 127.077,578.06C125.957,578.272 124.397,578.678 123.171,578.966C123.129,578.975 123.089,578.987 123.046,578.997C122.979,579.013 122.892,579.045 122.827,579.06C114.207,581.142 108.67,589.066 110.452,596.872C112.236,604.68 120.656,609.429 129.327,607.56C129.39,607.545 129.481,607.543 129.546,607.528C129.644,607.506 129.73,607.458 129.827,607.435C131.036,607.169 132.551,606.874 133.609,606.591C138.612,605.251 142.236,603.283 146.734,601.56C156.411,598.089 164.425,595.189 172.234,594.06C175.495,593.804 178.931,596.072 180.64,597.028L187.015,595.935C201.685,641.417 232.429,678.18 271.359,701.247L268.702,707.622C269.66,710.098 270.716,713.447 270.003,715.891C267.164,723.253 262.302,731.022 256.765,739.685C254.084,743.687 251.34,746.792 248.921,751.372C248.342,752.468 247.605,754.151 247.046,755.31C243.287,763.352 246.044,772.615 253.265,776.091C260.531,779.589 269.549,775.9 273.452,767.841C273.458,767.83 273.478,767.821 273.484,767.81C273.488,767.801 273.48,767.787 273.484,767.779C274.039,766.636 274.827,765.134 275.296,764.06C277.368,759.313 278.058,755.245 279.515,750.654C283.384,740.933 285.51,730.734 290.837,724.379C292.296,722.639 294.674,721.97 297.14,721.31L300.452,715.31C334.391,728.337 372.379,731.832 410.327,723.216C418.984,721.25 427.342,718.707 435.421,715.654C436.352,717.305 438.082,720.479 438.546,721.279C441.052,722.094 443.787,722.515 446.015,725.81C450,732.619 452.726,740.674 456.046,750.404C457.503,754.995 458.224,759.063 460.296,763.81C460.768,764.892 461.552,766.415 462.109,767.56C466.003,775.645 475.051,779.346 482.327,775.841C489.547,772.363 492.307,763.101 488.546,755.06C487.987,753.902 487.219,752.218 486.64,751.122C484.22,746.543 481.477,743.468 478.796,739.466C473.259,730.804 468.666,723.608 465.827,716.247C464.64,712.451 466.028,710.09 466.952,707.622C466.399,706.987 465.214,703.402 464.515,701.716C504.972,677.828 534.813,639.695 548.827,595.654C550.72,595.951 554.009,596.533 555.077,596.747C557.277,595.297 559.299,593.404 563.265,593.716C571.073,594.845 579.088,597.746 588.765,601.216C593.263,602.939 596.886,604.939 601.89,606.279C602.947,606.562 604.462,606.826 605.671,607.091C605.768,607.115 605.854,607.162 605.952,607.185C606.018,607.199 606.108,607.202 606.171,607.216C614.843,609.083 623.265,604.337 625.046,596.528C626.827,588.721 621.292,580.796 612.671,578.716C611.417,578.431 609.639,577.947 608.421,577.716C603.332,576.752 599.19,576.99 594.39,576.591C584.165,575.52 575.696,574.648 568.171,572.278C565.103,571.088 562.92,567.437 561.859,565.935L555.952,564.216C559.015,542.062 558.189,519.005 552.89,495.935C547.541,472.65 538.089,451.354 525.484,432.591C526.999,431.214 529.86,428.68 530.671,427.935C530.908,425.311 530.704,422.559 533.421,419.653C539.172,414.253 546.424,409.774 555.171,404.372C559.323,401.93 563.161,400.355 567.327,397.278C568.27,396.583 569.556,395.481 570.546,394.685C577.561,389.088 579.177,379.436 574.14,373.122C569.103,366.808 559.343,366.213 552.327,371.81C551.329,372.601 549.974,373.632 549.077,374.403C545.151,377.781 542.726,381.118 539.421,384.622C532.209,391.948 526.247,398.06 519.702,402.466C516.866,404.117 512.712,403.546 510.827,403.435L505.265,407.403C473.546,374.143 430.36,352.878 383.859,348.747C383.729,346.798 383.558,343.276 383.515,342.216C381.611,340.394 379.311,338.839 378.734,334.903C378.097,327.039 379.16,318.579 380.39,308.372C381.069,303.603 382.197,299.642 382.39,294.466C382.434,293.289 382.363,291.582 382.359,290.31C382.358,281.336 375.811,274.059 367.734,274.06L367.734,274.06ZM349.421,387.497L345.077,464.216L344.765,464.372C344.474,471.235 338.825,476.716 331.89,476.716C329.049,476.716 326.427,475.804 324.296,474.247L324.171,474.31L261.265,429.716C280.599,410.705 305.328,396.655 333.827,390.185C339.033,389.003 344.237,388.126 349.421,387.497ZM386.077,387.497C419.351,391.589 450.122,406.656 473.702,429.747L411.202,474.06L410.984,473.966C405.436,478.018 397.62,477.012 393.296,471.591C391.525,469.37 390.595,466.759 390.484,464.122L390.421,464.091L386.077,387.497ZM238.452,458.372L295.89,509.747L295.827,510.06C301.012,514.567 301.776,522.388 297.452,527.81C295.681,530.031 293.31,531.52 290.765,532.216L290.702,532.466L217.077,553.716C213.33,519.451 221.406,486.142 238.452,458.372ZM496.609,458.403C505.143,472.236 511.605,487.685 515.452,504.435C519.253,520.983 520.207,537.502 518.64,553.466L444.64,532.153L444.577,531.841C437.951,530.03 433.878,523.289 435.421,516.528C436.053,513.759 437.523,511.416 439.515,509.685L439.484,509.528L496.609,458.403L496.609,458.403ZM355.952,513.716L379.484,513.716L394.109,531.997L388.859,554.81L367.734,564.966L346.546,554.778L341.296,531.966L355.952,513.716ZM431.39,576.278C432.39,576.228 433.385,576.318 434.359,576.497L434.484,576.341L510.64,589.216C499.494,620.529 478.167,647.656 449.671,665.81L420.109,594.403L420.202,594.278C417.487,587.968 420.204,580.569 426.452,577.56C428.052,576.789 429.723,576.363 431.39,576.278L431.39,576.278ZM303.484,576.591C309.295,576.672 314.508,580.706 315.859,586.622C316.491,589.392 316.183,592.136 315.14,594.56L315.359,594.841L286.109,665.528C258.762,647.98 236.979,621.704 225.327,589.466L300.827,576.653L300.952,576.81C301.797,576.654 302.653,576.579 303.484,576.591L303.484,576.591ZM367.265,607.56C369.289,607.485 371.344,607.901 373.296,608.841C375.856,610.073 377.833,612.014 379.077,614.341L379.359,614.341L416.577,681.591C411.747,683.21 406.781,684.594 401.702,685.747C373.238,692.21 344.864,690.252 319.171,681.497L356.296,614.372L356.359,614.372C358.586,610.208 362.811,607.723 367.265,607.56Z" style="fill:white;fill-rule:nonzero;stroke:white;stroke-width:0.25px;"/></g></svg>