<?xml version="1.0" encoding="UTF-8" standalone="no"?><!DOCTYPE svg PUBLIC "-//W3C//DTD SVG 1.1//EN" "http://www.w3.org/Graphics/SVG/1.1/DTD/svg11.dtd"><svg width="16px" height="16px" viewBox="0 0 16 16" version="1.1" xmlns="http://www.w3.org/2000/svg" xmlns:xlink="http://www.w3.org/1999/xlink" xml:space="preserve" xmlns:serif="http://www.serif.com/" style="fill-rule:evenodd;clip-rule:evenodd;stroke-linejoin:round;stroke-miterlimit:2;"><path d="M14.5,15.001L8,15.001L8,15.5L7,16L1.499,15.001L0.999,14.501L0.999,1.499L1.499,0.999L7,0L8,0.5L8,0.999L14.501,0.999L15.001,1.499L14.99,14.5L14.5,15.001ZM6.992,14.9L7.007,1.1L2.009,1.999L1.999,14.001L6.992,14.9ZM13,1.999L14.001,1.999L13.995,14.002L12.991,14.002L13,1.999ZM12.001,1.999L7.992,1.999L8,14.002L11.995,14.002L12.001,1.999Z" style="fill:rgb(66,66,66);"/><path d="M11.995,1.999L8,1.999L8,14.002L11.995,14.002L11.995,1.999ZM13.995,1.999L13,1.999L13,14.002L13.995,14.002L13.995,1.999Z" style="fill:white;"/></svg>