<?xml version="1.0" encoding="UTF-8" standalone="no"?><!DOCTYPE svg PUBLIC "-//W3C//DTD SVG 1.1//EN" "http://www.w3.org/Graphics/SVG/1.1/DTD/svg11.dtd"><svg width="16px" height="16px" viewBox="0 0 16 16" version="1.1" xmlns="http://www.w3.org/2000/svg" xmlns:xlink="http://www.w3.org/1999/xlink" xml:space="preserve" xmlns:serif="http://www.serif.com/" style="fill-rule:evenodd;clip-rule:evenodd;stroke-linejoin:round;stroke-miterlimit:2;"><path d="M7.001,14L0.5,14L0,13.5L0,2.5L0.5,2L5.5,2L5.854,2.146L6.707,3L12.5,3L13,3.5L13,6L15.151,6L15.634,6.629L15.494,7L8.707,7L7.854,7.854L7.5,8L2.86,8L1.193,13L7.001,13L7.001,14ZM5.293,3L1,3L1,10.417L2.025,7.342L2.5,7L7.293,7L8.146,6.146L8.5,6L12,6L12,4L6.5,4L6.146,3.854L5.293,3Z" style="fill:rgb(66,66,66);fill-rule:nonzero;"/><path d="M11.536,8L15,10L15,13.999L11.536,15.999L8.073,13.999L8.073,10L11.536,8ZM8.939,13.499L11.135,14.767L11.135,12.267L8.939,10.999L8.939,13.499ZM14.135,10.999L12,12.231L12,14.732L14.135,13.499L14.135,10.999ZM9.372,10.249L11.537,11.499L13.702,10.249L11.537,8.999L9.372,10.249Z" style="fill:rgb(66,66,66);"/></svg>