<?xml version="1.0" encoding="UTF-8" standalone="no"?><!DOCTYPE svg PUBLIC "-//W3C//DTD SVG 1.1//EN" "http://www.w3.org/Graphics/SVG/1.1/DTD/svg11.dtd"><svg width="16px" height="16px" viewBox="0 0 16 16" version="1.1" xmlns="http://www.w3.org/2000/svg" xmlns:xlink="http://www.w3.org/1999/xlink" xml:space="preserve" xmlns:serif="http://www.serif.com/" style="fill-rule:evenodd;clip-rule:evenodd;stroke-linejoin:round;stroke-miterlimit:2;"><g transform="matrix(0.245557,0,0,0.245557,11.9996,15.8342)"><path d="M0,-31.904C-8.995,-31.904 -16.288,-24.611 -16.288,-15.614C-16.288,-8.417 -11.621,-2.312 -5.148,-0.157C-4.333,-0.008 -4.036,-0.511 -4.036,-0.943C-4.036,-1.329 -4.05,-2.354 -4.058,-3.713C-8.589,-2.729 -9.545,-5.897 -9.545,-5.897C-10.286,-7.778 -11.354,-8.279 -11.354,-8.279C-12.833,-9.29 -11.242,-9.27 -11.242,-9.27C-9.607,-9.154 -8.747,-7.591 -8.747,-7.591C-7.294,-5.102 -4.934,-5.821 -4.006,-6.237C-3.858,-7.29 -3.438,-8.008 -2.972,-8.415C-6.589,-8.826 -10.392,-10.224 -10.392,-16.466C-10.392,-18.244 -9.757,-19.698 -8.715,-20.837C-8.883,-21.249 -9.442,-22.905 -8.556,-25.148C-8.556,-25.148 -7.188,-25.586 -4.076,-23.478C-2.777,-23.839 -1.383,-24.02 0.002,-24.026C1.385,-24.02 2.779,-23.839 4.08,-23.478C7.19,-25.586 8.555,-25.148 8.555,-25.148C9.444,-22.905 8.885,-21.249 8.717,-20.837C9.761,-19.698 10.392,-18.244 10.392,-16.466C10.392,-10.208 6.583,-8.831 2.954,-8.428C3.539,-7.925 4.06,-6.931 4.06,-5.411C4.06,-3.234 4.04,-1.477 4.04,-0.943C4.04,-0.507 4.333,0 5.16,-0.159C11.628,-2.318 16.291,-8.419 16.291,-15.614C16.291,-24.611 8.997,-31.904 0,-31.904" style="fill:rgb(24,23,23);"/></g><path d="M5.5,13.49L4.28,15L4,15L4,12L7,12L7,15L6.72,15L5.5,13.49ZM7,11L2.736,11C2.638,11 2.54,11.021 2.45,11.06C2.269,11.135 2.125,11.279 2.05,11.46C2.018,11.553 2.001,11.651 2,11.75L2,12.25C2.001,12.349 2.018,12.447 2.05,12.54C2.125,12.721 2.269,12.865 2.45,12.94C2.541,12.98 2.64,13 2.74,13L3,13L3,14L2.74,14C2.511,13.997 2.284,13.953 2.07,13.87C1.645,13.688 1.307,13.347 1.13,12.92C1.042,12.708 0.998,12.48 1,12.25L1,2.75C1.004,2.537 1.048,2.327 1.13,2.13C1.296,1.684 1.635,1.323 2.07,1.13C2.284,1.047 2.511,1.003 2.74,1L12.5,1L13,1.5L13,7L12,7L12,2L3,2L3,10L7,10L7,11Z" style="fill:rgb(66,66,66);"/></svg>