<?xml version="1.0" encoding="UTF-8" standalone="no"?><!DOCTYPE svg PUBLIC "-//W3C//DTD SVG 1.1//EN" "http://www.w3.org/Graphics/SVG/1.1/DTD/svg11.dtd"><svg width="16px" height="16px" viewBox="0 0 16 16" version="1.1" xmlns="http://www.w3.org/2000/svg" xmlns:xlink="http://www.w3.org/1999/xlink" xml:space="preserve" xmlns:serif="http://www.serif.com/" style="fill-rule:evenodd;clip-rule:evenodd;stroke-linejoin:round;stroke-miterlimit:2;"><path d="M16,13L13,13L13,16L16,16L16,13ZM15,14.002L14,14.002L14,15L15,15L15,14.002ZM10,14.002L10,11L12,11L12,10L10,10L10,8L9,8L9,15L12,15L12,14.002L10,14.002ZM7.001,14L0.5,14L0,13.5L0,2.5L0.5,2L5.5,2L5.854,2.146L6.707,3L12.5,3L13,3.5L13,6L15.151,6L15.634,6.629L15.494,7L8.707,7L7.854,7.854L7.5,8L2.86,8L1.193,13L7.001,13L7.001,14ZM16,9L13,9L13,12L16,12L16,9ZM15,10.002L14,10.002L14,11L15,11L15,10.002ZM5.293,3L1,3L1,10.417L2.025,7.342L2.5,7L7.293,7L8.146,6.146L8.5,6L12,6L12,4L6.5,4L6.146,3.854L5.293,3Z" style="fill:rgb(197,197,197);"/></svg>