<?xml version="1.0" encoding="UTF-8" standalone="no"?><!DOCTYPE svg PUBLIC "-//W3C//DTD SVG 1.1//EN" "http://www.w3.org/Graphics/SVG/1.1/DTD/svg11.dtd"><svg width="16px" height="16px" viewBox="0 0 16 16" version="1.1" xmlns="http://www.w3.org/2000/svg" xmlns:xlink="http://www.w3.org/1999/xlink" xml:space="preserve" xmlns:serif="http://www.serif.com/" style="fill-rule:evenodd;clip-rule:evenodd;stroke-linejoin:round;stroke-miterlimit:2;"><g transform="matrix(0.0312309,0,0,0.0312309,8.00488,7.97939)"><path d="M181.378,254.252C185.41,255.822 190.008,255.722 194.077,253.764L246.783,228.402C252.322,225.737 255.844,220.132 255.844,213.983L255.844,42.018C255.844,35.869 252.322,30.264 246.784,27.599L194.077,2.237C188.737,-0.333 182.486,0.296 177.798,3.704C177.129,4.191 176.491,4.734 175.892,5.333L74.993,97.386L31.043,64.025C26.952,60.919 21.229,61.173 17.429,64.63L3.333,77.452C-1.315,81.68 -1.32,88.993 3.322,93.227L41.436,128L3.322,162.773C-1.32,167.008 -1.315,174.32 3.333,178.548L17.429,191.37C21.229,194.827 26.952,195.081 31.043,191.976L74.993,158.614L175.892,250.667C177.488,252.264 179.363,253.467 181.378,254.252ZM191.883,69.885L115.323,128L191.883,186.115L191.883,69.885Z" style="fill:rgb(66,66,66);"/></g><path d="M6.992,14.9L7,16L1.499,15.001L0.999,14.501L0.999,1.499L1.499,0.999L7,0L8,0.5L8,0.999L12.501,0.999L13.001,1.499L12.996,7L11.998,7L12.001,1.999L7.992,1.999L7.997,9L7,9L7.007,1.1L2.009,1.999L1.999,14.001L6.992,14.9Z" style="fill:rgb(66,66,66);"/><g transform="matrix(1.99579,0,0,1,-11.95,0)"><path d="M12.001,1.999L9.992,1.999L9.996,9L12.001,7L12.001,1.999Z" style="fill:rgb(224,137,31);"/></g></svg>