<?xml version="1.0" encoding="UTF-8" standalone="no"?><!DOCTYPE svg PUBLIC "-//W3C//DTD SVG 1.1//EN" "http://www.w3.org/Graphics/SVG/1.1/DTD/svg11.dtd"><svg width="16px" height="16px" viewBox="0 0 16 16" version="1.1" xmlns="http://www.w3.org/2000/svg" xmlns:xlink="http://www.w3.org/1999/xlink" xml:space="preserve" xmlns:serif="http://www.serif.com/" style="fill-rule:evenodd;clip-rule:evenodd;stroke-linejoin:round;stroke-miterlimit:2;"><path d="M12.99,14.5L12.5,15.001L8,15.001L8,15.5L7,16L1.499,15.001L0.999,14.501L0.999,1.499L1.499,0.999L7,0L8,0.5L8,0.999L12.501,0.999L13.001,1.499L12.99,14.5ZM11.995,14.002L12.001,1.999L7.992,1.999L8,14.002L11.999,14.002L11.995,14.002ZM6.992,14.9L7.007,1.1L2.009,1.999L1.999,14.001L6.992,14.9Z" style="fill:rgb(66,66,66);"/><g transform="matrix(1.99184,0,0,1,-11.9027,0)"><rect x="9.992" y="1.999" width="2.008" height="12.001" style="fill:rgb(224,137,31);"/></g></svg>