<?xml version="1.0" encoding="UTF-8" standalone="no"?><!DOCTYPE svg PUBLIC "-//W3C//DTD SVG 1.1//EN" "http://www.w3.org/Graphics/SVG/1.1/DTD/svg11.dtd"><svg width="16px" height="16px" viewBox="0 0 16 16" version="1.1" xmlns="http://www.w3.org/2000/svg" xmlns:xlink="http://www.w3.org/1999/xlink" xml:space="preserve" xmlns:serif="http://www.serif.com/" style="fill-rule:evenodd;clip-rule:evenodd;stroke-linejoin:round;stroke-miterlimit:2;"><g transform="matrix(1,0,0,1,-0.00055,-0.000675)"><path d="M7,15.002L1.5,15.002L1,14.502L1,1.5L1.5,1L12.501,0.999L13.001,1.499L12.996,7L11.996,7L12.001,1.999L9.993,1.999L9.993,8L9.007,8L9.007,1.999L2.009,2L2,14.002L7,14.002L7,15.002Z" style="fill:rgb(197,197,197);"/></g><path d="M11.5,12.843L9,10.343L8.293,11.05L10.414,13.172L8.293,15.293L9,16L11.5,13.5L11.5,12.843ZM12.293,11.157L14.793,13.657L15.5,12.95L13.379,10.828L15.5,8.707L14.793,8L12.293,10.5L12.293,11.157Z" style="fill:rgb(197,197,197);"/></svg>