<?xml version="1.0" encoding="UTF-8" standalone="no"?><!DOCTYPE svg PUBLIC "-//W3C//DTD SVG 1.1//EN" "http://www.w3.org/Graphics/SVG/1.1/DTD/svg11.dtd"><svg width="16px" height="16px" viewBox="0 0 16 16" version="1.1" xmlns="http://www.w3.org/2000/svg" xmlns:xlink="http://www.w3.org/1999/xlink" xml:space="preserve" xmlns:serif="http://www.serif.com/" style="fill-rule:evenodd;clip-rule:evenodd;stroke-linejoin:round;stroke-miterlimit:2;"><path d="M7,0L15.5,0L16,0.5L16,13.5L15.5,14L14,14L14,15.5L13.5,16L2.5,16L2,15.5L2,9L3,9L3,15L10,15L10,3L9,3L9,2L12,2L12,1L7,1L7,0ZM13,15L13,3L11,3L11,15L13,15ZM15,13L14,13L14,2.5L13.501,1.999L13,2L12.992,0.999L15,1L15,13ZM3,4L0,4L0,3L3,3L3,0L4,0L4,3L7,3L7,4L4,4L4,7L3,7L3,4Z" style="fill:rgb(197,197,197);"/></svg>