<?xml version="1.0" encoding="UTF-8" standalone="no"?><!DOCTYPE svg PUBLIC "-//W3C//DTD SVG 1.1//EN" "http://www.w3.org/Graphics/SVG/1.1/DTD/svg11.dtd"><svg width="16px" height="16px" viewBox="0 0 16 16" version="1.1" xmlns="http://www.w3.org/2000/svg" xmlns:xlink="http://www.w3.org/1999/xlink" xml:space="preserve" xmlns:serif="http://www.serif.com/" style="fill-rule:evenodd;clip-rule:evenodd;stroke-linejoin:round;stroke-miterlimit:2;"><path d="M8.006,1L14.501,0.999L15.001,1.499L14.99,14.502L14.49,15.002L3.5,15.002L3,14.502L3.006,9L4.006,9L4,14.002L11.007,14.002L11.007,1.999L8.006,2L8.006,1ZM11.993,1.999L11.993,14.002L13.99,14.002L14.001,1.999L11.993,1.999ZM3,4L0,4L0,3L3,3L3,0L4,0L4,3L7,3L7,4L4,4L4,7L3,7L3,4Z" style="fill:rgb(66,66,66);"/></svg>