<?xml version="1.0" encoding="UTF-8" standalone="no"?><!DOCTYPE svg PUBLIC "-//W3C//DTD SVG 1.1//EN" "http://www.w3.org/Graphics/SVG/1.1/DTD/svg11.dtd"><svg width="16px" height="16px" viewBox="0 0 16 16" version="1.1" xmlns="http://www.w3.org/2000/svg" xmlns:xlink="http://www.w3.org/1999/xlink" xml:space="preserve" xmlns:serif="http://www.serif.com/" style="fill-rule:evenodd;clip-rule:evenodd;stroke-linejoin:round;stroke-miterlimit:2;"><g transform="matrix(0.0471274,0,0,0.0471274,1.32854,0.0774748)"><g transform="matrix(1,0,0,1,-8,-4.42485)"><path d="M224.099,246.284C226.478,246.823 228.988,246.744 231.358,246.153C234.025,245.489 238.515,244.628 240.686,242.942C246.202,238.659 247.511,231.222 248.818,224.692C250.181,217.882 249.514,210.742 248.317,203.862C246.683,194.481 243.935,185.311 240.437,176.454C237.863,169.94 234.567,163.712 230.645,157.934C226.798,152.266 221.338,147.841 217.305,142.299C215.904,140.374 214.218,138.367 212.842,136.421C210.008,132.413 210.492,132.945 208.94,130.638C205.322,124.414 202.158,118.812 199.541,110.523C194.406,94.256 198.646,75.008 194.83,60.255C193.468,55.238 191.297,50.448 188.504,46.064C185.231,40.926 181.079,36.321 176.147,32.747C168.276,27.045 158.531,24.109 148.813,24.003L148.813,24.003C141.645,23.925 134.388,25.378 128.078,28.778C121.371,32.393 115.877,38.174 112.492,44.999C109.109,51.821 107.779,59.107 107.578,67.132C107.196,82.379 107.922,98.371 109.072,112.862C109.378,117.275 109.926,119.857 109.365,124.386C107.479,134.016 99.052,140.498 94.561,148.956C89.606,158.287 87.517,168.837 83.777,178.718C80.355,187.76 75.55,196.238 72.307,205.347C67.772,218.083 66.416,232.078 69.412,245.261C71.696,255.31 76.467,264.734 82.896,272.794C81.966,274.471 81.064,276.166 80.104,277.825C77.124,282.972 73.484,287.852 71.787,293.552C70.939,296.402 70.605,299.442 71.152,302.364C71.7,305.287 73.179,308.083 75.504,309.937C77.026,311.15 78.861,311.931 80.758,312.37C82.654,312.809 84.614,312.915 86.561,312.874C93.955,312.717 101.12,310.469 108.273,308.591C112.513,307.478 116.784,306.49 121.076,305.603C136.317,302.48 153.326,303.727 167.475,305.778C172.267,306.502 177.024,307.449 181.734,308.591C189.112,310.379 196.463,312.658 204.051,312.874C206.048,312.931 208.061,312.843 210.012,312.409C211.962,311.975 213.854,311.182 215.416,309.937C217.745,308.079 219.224,305.279 219.771,302.351C220.319,299.422 219.981,296.374 219.123,293.521C217.408,287.814 213.734,282.946 210.688,277.825C209.485,275.805 208.367,273.733 207.174,271.708C213.983,264.063 219.805,255.528 224.099,246.284Z" style="fill:rgb(2,2,4);fill-rule:nonzero;"/></g><path d="M112.704,105.452C111.658,106.764 110.976,108.339 110.565,109.966C110.153,111.592 110.003,113.274 109.938,114.95C109.81,118.303 110.015,121.72 109.127,124.956C108.179,128.416 106.051,131.413 103.97,134.334C100.365,139.393 96.721,144.584 94.943,150.536C93.866,154.141 93.507,157.959 93.894,161.701C89.859,167.627 86.365,173.922 83.471,180.482C79.085,190.424 76.075,201.008 75.017,211.823C73.721,225.065 75.414,238.685 80.644,250.919C84.426,259.765 90.062,267.863 97.33,274.166C101.025,277.371 105.13,280.106 109.52,282.263C124.732,289.74 143.533,289.754 158.492,281.783C166.311,277.617 172.91,271.525 179.273,265.361C183.105,261.648 186.917,257.848 189.84,253.385C195.467,244.793 197.427,234.349 198.645,224.151C200.775,206.317 200.844,187.481 193.024,171.313C190.332,165.746 186.745,160.614 182.443,156.172C181.298,148.391 179.037,140.775 175.751,133.63C173.381,128.475 170.483,123.568 168.28,118.339C167.376,116.192 166.59,113.994 165.587,111.892C164.583,109.79 163.345,107.767 161.662,106.157C159.939,104.507 157.791,103.338 155.527,102.59C153.262,101.842 150.877,101.503 148.495,101.383C143.73,101.144 138.956,101.767 134.189,101.578C130.395,101.427 126.612,100.762 122.821,100.986C120.925,101.098 119.03,101.436 117.27,102.151C115.511,102.865 113.889,103.968 112.704,105.452" style="fill:rgb(253,253,251);fill-rule:nonzero;"/><g transform="matrix(1,0,0,1,160,-57.3622)"><path d="M-69.527,194.036C-76.6,202.073 -83.879,209.852 -87.873,218.541C-89.849,222.954 -90.784,227.748 -92.138,232.39C-93.676,237.662 -95.764,242.761 -98.109,247.726C-100.274,252.312 -102.658,256.789 -105.047,261.262C-106.786,264.516 -108.553,267.843 -109.155,271.483C-109.632,274.359 -109.354,277.327 -108.622,280.149C-107.889,282.971 -106.712,285.66 -105.384,288.255C-99.717,299.33 -91.214,308.877 -81.142,316.18C-76.571,319.494 -71.675,322.361 -66.54,324.706C-63.757,325.976 -60.826,327.11 -57.768,327.163C-56.239,327.19 -54.694,326.938 -53.293,326.322C-51.893,325.707 -50.643,324.719 -49.811,323.435C-48.788,321.858 -48.441,319.897 -48.646,318.028C-48.852,316.159 -49.581,314.375 -50.559,312.769C-52.949,308.847 -56.725,306.009 -60.356,303.196C-68.196,297.122 -75.781,290.715 -83.038,283.956C-85.087,282.047 -87.136,280.078 -88.568,277.672C-89.962,275.328 -90.716,272.658 -91.226,269.979C-92.626,262.63 -92.267,254.896 -89.766,247.846C-88.788,245.088 -87.495,242.454 -86.248,239.806C-84.087,235.217 -82.041,230.54 -79.199,226.339C-75.661,221.109 -70.931,216.678 -68.047,211.061C-65.613,206.319 -64.628,200.989 -63.686,195.743C-62.949,191.638 -61.535,187.618 -60.816,183.511C-62.223,186.176 -66.754,190.553 -69.527,194.036Z" style="fill:rgb(2,2,4);fill-rule:nonzero;"/></g><g transform="matrix(1,0,0,1,-8,-4.42485)"><path d="M271.19,282.677C268.566,285.791 264.922,287.847 261.293,289.696C255.105,292.851 248.692,295.618 242.874,299.413C238.976,301.955 235.378,304.94 232.013,308.155C229.136,310.905 226.408,313.843 223.181,316.173C219.925,318.524 216.162,320.227 212.19,320.823C207.36,321.548 202.369,320.61 197.891,318.659C194.754,317.292 191.736,315.336 189.928,312.43C188.114,309.512 187.7,305.942 187.696,302.506C187.688,296.429 188.814,290.416 189.874,284.432C190.755,279.461 191.594,274.478 192.134,269.457C193.118,260.326 193.111,251.105 192.454,241.944C192.344,240.41 192.217,238.861 192.446,237.34C192.675,235.819 193.301,234.303 194.467,233.3C195.544,232.374 196.988,231.964 198.406,231.886C199.825,231.807 201.24,232.032 202.646,232.238C205.959,232.722 209.298,233.103 212.535,233.954C214.578,234.492 216.568,235.213 218.608,235.765C222.01,236.685 225.574,237.126 229.075,236.717C232.844,236.276 236.505,234.86 240.299,234.952C241.855,234.99 243.4,235.284 244.885,235.752C246.4,236.23 247.894,236.914 249.008,238.047C249.854,238.909 250.444,239.993 250.887,241.116C251.546,242.79 251.901,244.573 252.054,246.365C252.188,247.953 252.167,249.56 252.468,251.125C252.963,253.699 254.315,256.048 255.996,258.06C257.677,260.072 259.686,261.78 261.693,263.468C263.692,265.149 265.703,266.822 267.86,268.296C268.872,268.988 269.916,269.635 270.877,270.397C271.838,271.158 272.722,272.043 273.323,273.112C274.138,274.561 274.386,276.32 273.86,277.988C273.334,279.657 272.379,281.265 271.19,282.677ZM65.577,227.082C67.176,226.419 68.975,226.298 70.678,226.612C72.38,226.926 73.989,227.662 75.421,228.635C78.285,230.58 80.409,233.412 82.444,236.214C87.116,242.648 91.612,249.216 95.689,256.043C98.995,261.581 102.032,267.3 105.853,272.496C108.347,275.888 111.159,279.036 113.666,282.419C116.172,285.801 118.394,289.474 119.505,293.535C120.949,298.812 120.39,304.628 117.878,309.488C116.112,312.907 113.402,315.841 110.106,317.827C106.81,319.814 102.935,320.842 99.09,320.697C92.975,320.468 87.39,317.412 81.706,315.148C70.125,310.536 57.546,309.089 45.609,305.497C41.941,304.393 38.333,303.086 34.639,302.07C32.998,301.619 31.331,301.222 29.781,300.519C28.231,299.816 26.781,298.77 25.919,297.302C25.253,296.168 24.971,294.832 24.989,293.517C25.007,292.201 25.315,290.902 25.763,289.665C26.658,287.191 28.106,284.951 29.083,282.508C30.678,278.519 30.964,274.12 30.749,269.829C30.534,265.538 29.839,261.284 29.545,256.997C29.414,255.083 29.364,253.145 29.73,251.262C30.095,249.378 30.905,247.537 32.287,246.206C33.561,244.979 35.252,244.251 36.984,243.89C38.715,243.528 40.499,243.512 42.267,243.552C44.036,243.592 45.808,243.686 47.571,243.541C49.334,243.396 51.104,243.001 52.64,242.123C54.1,241.289 55.294,240.049 56.284,238.689C57.273,237.329 58.073,235.843 58.893,234.375C59.712,232.907 60.561,231.443 61.634,230.149C62.707,228.854 64.023,227.726 65.577,227.082L65.577,227.082Z" style="fill:rgb(245,192,33);fill-rule:nonzero;"/></g><g transform="matrix(1,0,0,1,160,-58.3622)"><path d="M76.188,285.328C75.782,284.224 75.069,283.246 74.197,282.458C73.325,281.67 72.296,281.066 71.214,280.606C69.049,279.688 66.693,279.345 64.382,278.911C62.203,278.501 60.041,278.004 57.855,277.633C55.583,277.248 53.237,277.001 50.989,277.508C49.024,277.951 47.205,278.967 45.718,280.327C44.23,281.687 43.069,283.383 42.233,285.217C40.76,288.446 40.298,292.082 40.579,295.62C40.788,298.253 41.454,300.966 43.188,302.959C44.588,304.57 46.575,305.574 48.621,306.18C52.146,307.223 55.988,307.168 59.482,306.025C65.249,304.094 70.358,300.251 73.812,295.246C74.951,293.596 75.924,291.798 76.365,289.842C76.701,288.353 76.714,286.761 76.188,285.328" style="fill:rgb(2,2,4);fill-rule:nonzero;"/></g><g transform="matrix(1,0,0,1,-8,-4.42485)"><path d="M122.232,68.425C120.451,68.522 118.748,69.344 117.444,70.562C116.141,71.779 115.223,73.373 114.658,75.065C113.529,78.449 113.783,82.117 114.04,85.675C114.272,88.896 114.51,92.18 115.716,95.176C116.32,96.675 117.167,98.087 118.297,99.24C119.427,100.394 120.848,101.282 122.415,101.675C123.884,102.043 125.453,101.967 126.898,101.513C128.342,101.059 129.662,100.234 130.744,99.175C132.323,97.63 133.387,95.609 133.997,93.485C134.608,91.362 134.782,89.134 134.75,86.925C134.71,84.16 134.349,81.386 133.484,78.76C132.619,76.135 131.238,73.657 129.311,71.675C128.378,70.715 127.314,69.87 126.113,69.277C124.912,68.685 123.569,68.352 122.232,68.425ZM153.75,68.425C150.969,70.335 148.639,73 147.5,76.175C146.064,80.176 146.614,84.656 148,88.675C149.419,92.792 151.794,96.716 155.379,99.187C157.172,100.423 159.247,101.27 161.41,101.526C163.572,101.781 165.819,101.431 167.75,100.425C170.103,99.199 171.898,97.052 173.012,94.644C174.126,92.236 174.601,89.574 174.75,86.925C174.94,83.549 174.609,80.118 173.5,76.925C172.295,73.456 170.11,70.254 167.027,68.258C165.486,67.26 163.735,66.575 161.916,66.323C160.097,66.072 158.211,66.26 156.5,66.925C155.524,67.304 154.612,67.832 153.75,68.425Z" style="fill:white;fill-rule:nonzero;"/></g><g transform="matrix(1,0,0,1,-8,-4.42485)"><path d="M160.161,76.82C159.116,76.895 158.097,77.251 157.21,77.81C156.323,78.368 155.567,79.125 154.973,79.989C153.786,81.716 153.264,83.836 153.18,85.93C153.117,87.503 153.291,89.095 153.812,90.58C154.334,92.065 155.213,93.439 156.425,94.443C157.665,95.47 159.242,96.086 160.85,96.163C162.458,96.241 164.09,95.777 165.411,94.857C166.464,94.124 167.313,93.115 167.918,91.984C168.522,90.852 168.887,89.6 169.053,88.328C169.347,86.081 169.015,83.735 167.976,81.721C166.938,79.707 165.176,78.049 163.049,77.265C162.128,76.926 161.14,76.749 160.161,76.82ZM117.939,83.174C117.567,85.42 117.553,87.776 118.325,89.918C118.835,91.332 119.676,92.615 120.697,93.717C121.366,94.439 122.126,95.095 123.013,95.52C123.901,95.946 124.929,96.127 125.883,95.887C126.765,95.666 127.535,95.098 128.104,94.39C128.672,93.681 129.051,92.837 129.321,91.969C130.119,89.409 129.991,86.608 129.199,84.045C128.622,82.178 127.667,80.377 126.172,79.118C125.459,78.518 124.624,78.047 123.717,77.832C122.81,77.616 121.829,77.667 120.98,78.052C120.038,78.481 119.308,79.296 118.831,80.214C118.353,81.132 118.108,82.153 117.939,83.174Z" style="fill:rgb(2,2,4);fill-rule:nonzero;"/></g><g transform="matrix(1,0,0,1,59.9998,-58.3622)"><path d="M45.752,165.032C45.813,165.327 45.924,165.612 46.079,165.871C46.344,166.316 46.733,166.677 47.152,166.982C47.571,167.288 48.025,167.542 48.464,167.818C50.798,169.285 52.699,171.347 54.389,173.525C56.655,176.447 58.661,179.69 61.688,181.814C63.826,183.314 66.384,184.169 68.982,184.43C72.033,184.736 75.122,184.244 78.064,183.378C80.79,182.575 83.427,181.448 85.846,179.956C90.444,177.121 94.285,172.964 99.356,171.099C100.463,170.692 101.615,170.401 102.682,169.899C103.75,169.397 104.754,168.645 105.263,167.581C105.753,166.559 105.734,165.379 105.894,164.256C106.065,163.056 106.448,161.895 106.658,160.7C106.868,159.505 106.893,158.228 106.376,157.13C105.949,156.222 105.171,155.502 104.277,155.046C103.382,154.589 102.376,154.381 101.372,154.332C99.366,154.233 97.385,154.747 95.384,154.93C92.735,155.172 90.066,154.832 87.407,154.911C84.099,155.009 80.839,155.755 77.533,155.916C73.761,156.099 69.998,155.517 66.225,155.364C64.591,155.298 62.945,155.313 61.333,155.59C59.721,155.866 58.138,156.413 56.792,157.343C55.481,158.248 54.436,159.483 53.232,160.527C52.63,161.048 51.983,161.526 51.266,161.874C50.549,162.222 49.758,162.438 48.962,162.421C48.552,162.412 48.131,162.344 47.74,162.468C47.497,162.546 47.28,162.695 47.097,162.874C46.914,163.053 46.762,163.261 46.619,163.473C46.287,163.967 45.996,164.489 45.752,165.032" style="fill:rgb(245,192,33);fill-rule:nonzero;"/></g><g transform="matrix(1,0,0,1,59.9998,-58.3622)"><path d="M54.066,156.68C52.727,157.471 51.438,158.344 50.169,159.243C49.512,159.709 48.835,160.212 48.488,160.939C48.243,161.454 48.186,162.038 48.179,162.608C48.171,163.179 48.207,163.752 48.132,164.318C48.081,164.704 47.978,165.084 47.961,165.473C47.952,165.668 47.966,165.865 48.017,166.053C48.068,166.24 48.159,166.42 48.292,166.561C48.465,166.745 48.7,166.857 48.941,166.931C49.182,167.004 49.432,167.042 49.677,167.099C50.851,167.376 51.874,168.096 52.771,168.903C53.668,169.71 54.474,170.618 55.41,171.38C57.947,173.444 61.3,174.298 64.571,174.352C67.841,174.406 71.075,173.721 74.266,173.003C76.772,172.438 79.281,171.848 81.692,170.959C85.394,169.594 88.832,167.527 91.81,164.937C93.16,163.763 94.427,162.474 95.942,161.522C97.283,160.68 98.785,160.124 100.149,159.319C100.27,159.247 100.392,159.173 100.501,159.083C100.61,158.992 100.706,158.884 100.77,158.758C100.879,158.539 100.879,158.277 100.809,158.042C100.738,157.808 100.602,157.598 100.449,157.408C100.279,157.197 100.085,157.006 99.88,156.83C98.455,155.611 96.523,155.168 94.654,155.02C92.785,154.872 90.893,154.976 89.044,154.667C87.305,154.377 85.651,153.729 83.972,153.19C82.21,152.625 80.409,152.178 78.583,151.88C74.288,151.179 69.866,151.313 65.606,152.2C61.548,153.045 57.634,154.571 54.066,156.68" style="fill-rule:nonzero;"/></g><g transform="matrix(1,0,0,1,59.9998,-58.3622)"><path d="M53.639,152.154C51.71,153.453 49.973,155.037 48.503,156.839C47.663,157.87 46.9,158.99 46.476,160.251C46.143,161.243 46.03,162.293 45.82,163.318C45.741,163.702 45.649,164.087 45.65,164.479C45.651,164.675 45.676,164.872 45.737,165.058C45.797,165.244 45.895,165.42 46.031,165.561C46.255,165.795 46.571,165.922 46.889,165.988C47.207,166.053 47.533,166.063 47.855,166.099C49.31,166.265 50.649,166.971 51.855,167.802C53.061,168.632 54.172,169.597 55.41,170.38C58.144,172.109 61.404,172.878 64.637,173.002C67.869,173.127 71.094,172.636 74.266,172.003C76.787,171.499 79.3,170.902 81.692,169.959C85.354,168.515 88.655,166.292 91.81,163.937C93.243,162.867 94.656,161.764 95.942,160.522C96.379,160.1 96.801,159.662 97.27,159.276C97.738,158.89 98.258,158.555 98.836,158.369C99.717,158.085 100.671,158.167 101.584,158.319C102.271,158.434 102.96,158.588 103.656,158.56C104.004,158.547 104.353,158.486 104.676,158.357C105,158.227 105.298,158.027 105.52,157.758C105.811,157.405 105.96,156.943 105.961,156.485C105.963,156.028 105.822,155.575 105.59,155.18C105.125,154.391 104.322,153.857 103.485,153.485C102.339,152.976 101.099,152.724 99.88,152.429C96.134,151.525 92.495,150.189 89.044,148.475C87.328,147.624 85.66,146.68 83.972,145.775C82.237,144.845 80.468,143.951 78.583,143.38C74.37,142.103 69.765,142.521 65.606,143.966C60.986,145.57 56.808,148.429 53.639,152.154L53.639,152.154" style="fill:rgb(245,192,33);fill-rule:nonzero;"/></g></g></svg>