<?xml version="1.0" encoding="UTF-8" standalone="no"?><!DOCTYPE svg PUBLIC "-//W3C//DTD SVG 1.1//EN" "http://www.w3.org/Graphics/SVG/1.1/DTD/svg11.dtd"><svg width="16px" height="16px" viewBox="0 0 16 16" version="1.1" xmlns="http://www.w3.org/2000/svg" xmlns:xlink="http://www.w3.org/1999/xlink" xml:space="preserve" xmlns:serif="http://www.serif.com/" style="fill-rule:evenodd;clip-rule:evenodd;stroke-linejoin:round;stroke-miterlimit:2;"><g transform="matrix(0.101826,0,0,0.101826,0.363028,0.36313)"><path d="M52.091,10.225L92.775,10.225L50.541,135.361C49.653,137.991 47.171,139.773 44.395,139.773L12.732,139.773C9.179,139.773 6.255,136.85 6.255,133.297C6.255,132.593 6.37,131.894 6.595,131.227L45.944,14.638C46.831,12.006 49.314,10.224 52.091,10.223L52.091,10.225Z" style="fill:url(#_Linear1);fill-rule:nonzero;"/><path d="M111.211,94.158L46.695,94.158C46.694,94.158 46.693,94.158 46.692,94.158C45.054,94.158 43.706,95.506 43.706,97.144C43.706,97.972 44.051,98.764 44.656,99.328L86.113,138.022C87.319,139.147 88.909,139.774 90.559,139.773L127.091,139.773L111.211,94.158Z" style="fill:rgb(0,120,212);fill-rule:nonzero;"/><path d="M52.091,10.225C49.281,10.214 46.775,12.044 45.93,14.723L6.644,131.12C6.392,131.821 6.264,132.56 6.264,133.305C6.264,136.853 9.184,139.773 12.733,139.773C12.738,139.773 12.744,139.773 12.75,139.773L45.23,139.773C47.689,139.334 49.729,137.599 50.558,135.242L58.392,112.153L86.377,138.255C87.549,139.224 89.021,139.761 90.542,139.773L126.937,139.773L110.975,94.158L64.442,94.169L92.922,10.225L52.091,10.225Z" style="fill:url(#_Linear2);fill-rule:nonzero;"/><path d="M104.055,14.631C103.168,12.004 100.689,10.225 97.917,10.225L52.575,10.225C55.347,10.225 57.826,12.005 58.713,14.631L98.063,131.225C98.288,131.893 98.403,132.592 98.403,133.297C98.403,136.851 95.479,139.775 91.925,139.775L137.269,139.775C140.822,139.774 143.745,136.85 143.745,133.297C143.745,132.592 143.63,131.893 143.405,131.225L104.055,14.631Z" style="fill:url(#_Linear3);fill-rule:nonzero;"/></g><defs><linearGradient id="_Linear1" x1="0" y1="0" x2="1" y2="0" gradientUnits="userSpaceOnUse" gradientTransform="matrix(-42.2516,124.822,-124.822,-42.2516,66.9188,19.825)"><stop offset="0" style="stop-color:rgb(17,74,139);stop-opacity:1"/><stop offset="1" style="stop-color:rgb(6,105,188);stop-opacity:1"/></linearGradient><linearGradient id="_Linear2" x1="0" y1="0" x2="1" y2="0" gradientUnits="userSpaceOnUse" gradientTransform="matrix(-9.77344,3.30469,-3.30469,-9.77344,80.1172,77.9953)"><stop offset="0" style="stop-color:black;stop-opacity:0.3"/><stop offset="0.07" style="stop-color:black;stop-opacity:0.2"/><stop offset="0.32" style="stop-color:black;stop-opacity:0.1"/><stop offset="0.62" style="stop-color:black;stop-opacity:0.05"/><stop offset="1" style="stop-color:black;stop-opacity:0"/></linearGradient><linearGradient id="_Linear3" x1="0" y1="0" x2="1" y2="0" gradientUnits="userSpaceOnUse" gradientTransform="matrix(46.3797,123.564,-123.564,46.3797,74.7422,16.1844)"><stop offset="0" style="stop-color:rgb(60,203,244);stop-opacity:1"/><stop offset="1" style="stop-color:rgb(40,146,223);stop-opacity:1"/></linearGradient></defs></svg>