<?xml version="1.0" encoding="UTF-8" standalone="no"?><!DOCTYPE svg PUBLIC "-//W3C//DTD SVG 1.1//EN" "http://www.w3.org/Graphics/SVG/1.1/DTD/svg11.dtd"><svg width="16px" height="16px" viewBox="0 0 16 16" version="1.1" xmlns="http://www.w3.org/2000/svg" xmlns:xlink="http://www.w3.org/1999/xlink" xml:space="preserve" xmlns:serif="http://www.serif.com/" style="fill-rule:evenodd;clip-rule:evenodd;stroke-linejoin:round;stroke-miterlimit:2;"><g transform="matrix(1,0,0,1,0,1)"><path d="M14.5,1L1.5,1L1,1.5L1,13.5L1.5,14L14.5,14L15,13.5L15,1.5L14.5,1ZM14,13L2,13L2,2L14,2L14,13ZM7.354,7.184L4.856,4.686L4.15,5.393L6.269,7.512L4.15,9.631L4.856,10.338L7.354,7.84L7.354,7.184ZM11.85,9.339L7.854,9.339L7.854,10.338L11.85,10.338L11.85,9.339Z" style="fill:rgb(66,66,66);"/></g></svg>