<?xml version="1.0" encoding="UTF-8" standalone="no"?><!DOCTYPE svg PUBLIC "-//W3C//DTD SVG 1.1//EN" "http://www.w3.org/Graphics/SVG/1.1/DTD/svg11.dtd"><svg width="16px" height="16px" viewBox="0 0 16 16" version="1.1" xmlns="http://www.w3.org/2000/svg" xmlns:xlink="http://www.w3.org/1999/xlink" xml:space="preserve" xmlns:serif="http://www.serif.com/" style="fill-rule:evenodd;clip-rule:evenodd;stroke-linejoin:round;stroke-miterlimit:2;"><g transform="matrix(1,0,0,1,-1,0)"><path d="M7.71,3L14.5,3L15.01,3.5L15.01,13.5L14.51,14L8.743,14C8.998,13.692 9.218,13.356 9.4,13L13.99,13L14,5.99L7.69,5.99L7.673,6.007C7.396,5.811 7.101,5.641 6.792,5.499L7.14,5.15L7.49,5L13.99,5L14,4.01L7.5,4.01L7.14,3.86L6.29,3.01L2,3.01L2,5.6C1.647,5.78 1.315,5.997 1.01,6.249L1.01,2.5L1.51,2L6.51,2L6.86,2.15L7.71,3ZM8,10.5C8,12.42 6.42,14 4.5,14C2.58,14 1,12.42 1,10.5C1,8.58 2.58,7 4.5,7C6.42,7 8,8.58 8,10.5ZM4.5,13C5.871,13 7,11.871 7,10.5C7,9.129 5.871,8 4.5,8C3.129,8 2,9.129 2,10.5C2,11.871 3.129,13 4.5,13ZM6,10.5C6,11.323 5.323,12 4.5,12C3.677,12 3,11.323 3,10.5C3,9.677 3.677,9 4.5,9C5.323,9 6,9.677 6,10.5Z" style="fill:rgb(66,66,66);"/></g></svg>