<?xml version="1.0" encoding="UTF-8" standalone="no"?><!DOCTYPE svg PUBLIC "-//W3C//DTD SVG 1.1//EN" "http://www.w3.org/Graphics/SVG/1.1/DTD/svg11.dtd"><svg width="16px" height="16px" viewBox="0 0 16 16" version="1.1" xmlns="http://www.w3.org/2000/svg" xmlns:xlink="http://www.w3.org/1999/xlink" xml:space="preserve" xmlns:serif="http://www.serif.com/" style="fill-rule:evenodd;clip-rule:evenodd;stroke-linejoin:round;stroke-miterlimit:2;"><path d="M14.999,15.5L14.499,16.002L8.499,16.002L7.999,15.502L8.01,10.5L8.51,10L10.506,10L10.86,10.146L11.712,10.999L14.5,10.999L15,11.499L14.999,15.5ZM13.999,15L13.989,12.003L11.707,12.003L10.849,12.861L10.495,13.007L9.01,13.007L8.999,15.002L13.999,15ZM3,13.001L3,6L7,6L7,5.001L3,5.001L3,0L2,0L2,13.5L2.5,14L7,14L7,13.001L3,13.001ZM10.799,11.5L10.299,11L9.01,11L9.01,12.007L10.288,12.007L10.799,11.5ZM14.999,7.5L14.499,8.002L8.499,8.002L7.999,7.502L8.01,2.5L8.51,2L10.506,2L10.86,2.146L11.712,2.999L14.5,2.999L15,3.499L14.999,7.5ZM13.999,7L13.989,4.003L11.707,4.003L10.849,4.861L10.495,5.007L9.01,5.007L8.999,7.002L13.999,7ZM10.799,3.5L10.299,3L9.01,3L9.01,4.007L10.288,4.007L10.799,3.5Z" style="fill:rgb(66,66,66);"/></svg>