<?xml version="1.0" encoding="UTF-8" standalone="no"?><!DOCTYPE svg PUBLIC "-//W3C//DTD SVG 1.1//EN" "http://www.w3.org/Graphics/SVG/1.1/DTD/svg11.dtd"><svg width="16px" height="16px" viewBox="0 0 16 16" version="1.1" xmlns="http://www.w3.org/2000/svg" xmlns:xlink="http://www.w3.org/1999/xlink" xml:space="preserve" xmlns:serif="http://www.serif.com/" style="fill-rule:evenodd;clip-rule:evenodd;stroke-linejoin:round;stroke-miterlimit:2;"><path d="M8,1C11.863,1 15,4.137 15,8C15,11.863 11.863,15 8,15C4.137,15 1,11.863 1,8C1,4.137 4.137,1 8,1ZM8,2C11.311,2 14,4.689 14,8C14,11.311 11.311,14 8,14C4.689,14 2,11.311 2,8C2,4.689 4.689,2 8,2Z" style="fill:rgb(66,66,66);"/><g transform="matrix(0.707107,0.707107,-0.832107,0.832107,14.2929,1)"><rect x="0" y="0" width="1" height="16" style="fill:rgb(66,66,66);"/></g></svg>