<?xml version="1.0" encoding="UTF-8" standalone="no"?><!DOCTYPE svg PUBLIC "-//W3C//DTD SVG 1.1//EN" "http://www.w3.org/Graphics/SVG/1.1/DTD/svg11.dtd"><svg width="16px" height="16px" viewBox="0 0 16 16" version="1.1" xmlns="http://www.w3.org/2000/svg" xmlns:xlink="http://www.w3.org/1999/xlink" xml:space="preserve" xmlns:serif="http://www.serif.com/" style="fill-rule:evenodd;clip-rule:evenodd;stroke-linejoin:round;stroke-miterlimit:2;"><path d="M13.669,15.92c0.126,0.049 0.27,0.046 0.397,-0.015l1.646,-0.792c0.173,-0.084 0.283,-0.259 0.283,-0.451l0,-5.37c0,-0.192 -0.11,-0.367 -0.283,-0.451l-1.646,-0.792c-0.167,-0.08 -0.362,-0.06 -0.508,0.046c-0.021,0.015 -0.041,0.032 -0.06,0.051l-3.151,2.875l-1.373,-1.042c-0.127,-0.097 -0.306,-0.089 -0.425,0.019l-0.44,0.4c-0.145,0.132 -0.145,0.361 0,0.493l1.19,1.086l-1.19,1.086c-0.145,0.132 -0.145,0.361 0,0.493l0.44,0.4c0.119,0.108 0.298,0.116 0.425,0.019l1.373,-1.042l3.151,2.875c0.05,0.05 0.109,0.087 0.171,0.112Zm0.329,-5.758l-2.391,1.815l2.391,1.815l0,-3.63Z" style="fill:#424242;"/><path d="M6.999,15.001l-5.5,0l-0.5,-0.5l0,-13.002l0.5,-0.5l11.002,0l0.5,0.5l-0.006,5.5l-1,0l0.006,-5l-1.009,0l0,6l-0.985,0l0,-6l-7.998,0l-0.01,12.002l5,0l0,1Z" style="fill:#424242;"/></svg>