<?xml version="1.0" encoding="UTF-8" standalone="no"?><!DOCTYPE svg PUBLIC "-//W3C//DTD SVG 1.1//EN" "http://www.w3.org/Graphics/SVG/1.1/DTD/svg11.dtd"><svg width="16px" height="16px" viewBox="0 0 16 16" version="1.1" xmlns="http://www.w3.org/2000/svg" xmlns:xlink="http://www.w3.org/1999/xlink" xml:space="preserve" xmlns:serif="http://www.serif.com/" style="fill-rule:evenodd;clip-rule:evenodd;stroke-linejoin:round;stroke-miterlimit:2;"><g transform="matrix(0.0546541,0,0,0.0546541,1.00854,1.00427)"><path d="M246.94,27.638L194.193,2.241C188.088,-0.698 180.791,0.542 175.999,5.333L3.324,162.773C-1.321,167.008 -1.315,174.32 3.335,178.548L17.44,191.37C21.242,194.827 26.968,195.081 31.062,191.976L239.003,34.227C245.979,28.935 255.999,33.91 255.999,42.667L255.999,42.054C255.999,35.908 252.478,30.305 246.94,27.638Z" style="fill:rgb(0,101,169);fill-rule:nonzero;"/><path d="M246.94,228.362L194.193,253.759C188.088,256.698 180.791,255.458 175.999,250.667L3.324,93.227C-1.321,88.993 -1.315,81.68 3.335,77.452L17.44,64.63C21.242,61.173 26.968,60.919 31.062,64.025L239.003,221.773C245.979,227.065 255.999,222.09 255.999,213.333L255.999,213.946C255.999,220.092 252.478,225.695 246.94,228.362Z" style="fill:rgb(0,122,204);fill-rule:nonzero;"/><path d="M194.196,253.763C188.089,256.7 180.792,255.459 176,250.667C181.904,256.571 192,252.389 192,244.039L192,11.961C192,3.611 181.904,-0.571 176,5.333C180.792,0.541 188.089,-0.701 194.196,2.236L246.934,27.599C252.476,30.264 256,35.869 256,42.018L256,213.983C256,220.132 252.476,225.737 246.934,228.402L194.196,253.763Z" style="fill:rgb(31,156,240);fill-rule:nonzero;"/><path d="M181.378,254.252C185.41,255.822 190.008,255.722 194.077,253.764L246.783,228.402C252.322,225.737 255.844,220.132 255.844,213.983L255.844,42.018C255.844,35.869 252.322,30.264 246.784,27.599L194.077,2.237C188.737,-0.333 182.486,0.296 177.798,3.704C177.129,4.191 176.491,4.734 175.892,5.333L74.993,97.386L31.043,64.025C26.952,60.919 21.229,61.173 17.429,64.63L3.333,77.452C-1.315,81.68 -1.32,88.993 3.322,93.227L41.436,128L3.322,162.773C-1.32,167.008 -1.315,174.32 3.333,178.548L17.429,191.37C21.229,194.827 26.952,195.081 31.043,191.976L74.993,158.614L175.892,250.667C177.488,252.264 179.363,253.467 181.378,254.252ZM191.883,69.885L115.323,128L191.883,186.115L191.883,69.885Z" style="fill:url(#_Linear1);"/></g><defs><linearGradient id="_Linear1" x1="0" y1="0" x2="1" y2="0" gradientUnits="userSpaceOnUse" gradientTransform="matrix(1.55947e-14,254.68,-254.68,1.55947e-14,127.844,0.659988)"><stop offset="0" style="stop-color:white;stop-opacity:0.25"/><stop offset="1" style="stop-color:white;stop-opacity:0"/></linearGradient></defs></svg>