<?xml version="1.0" encoding="UTF-8" standalone="no"?><!DOCTYPE svg PUBLIC "-//W3C//DTD SVG 1.1//EN" "http://www.w3.org/Graphics/SVG/1.1/DTD/svg11.dtd"><svg width="16px" height="16px" viewBox="0 0 16 16" version="1.1" xmlns="http://www.w3.org/2000/svg" xmlns:xlink="http://www.w3.org/1999/xlink" xml:space="preserve" xmlns:serif="http://www.serif.com/" style="fill-rule:evenodd;clip-rule:evenodd;stroke-linejoin:round;stroke-miterlimit:2;"><path d="M6.995,14.002l-6.495,0l-0.5,-0.5l0.011,-11.002l0.5,-0.5l4.996,0l0.354,0.146l0.852,0.853l6.788,0l0.5,0.5l-0.004,3.501l-1.007,0l0,-0.997l-6.282,0l-0.858,0.858l-0.354,0.146l-4.485,0l-0.011,5.995l5.995,0l0,1Zm-0.489,-10.003l-0.353,-0.146l-0.853,-0.853l-4.289,0l0,3.007l4.278,0l0.858,-0.857l0.353,-0.147l6.501,0l0,-1.004l-6.495,0Z" style="fill:#424242;"/><path d="M15.849,11.644l-3.493,-3.493c-0.201,-0.201 -0.527,-0.201 -0.728,0l-0.726,0.725l0.92,0.92c0.214,-0.072 0.459,-0.023 0.63,0.147c0.171,0.172 0.219,0.419 0.145,0.633l0.887,0.887c0.215,-0.074 0.462,-0.026 0.633,0.146c0.24,0.239 0.24,0.627 0,0.867c-0.239,0.239 -0.627,0.239 -0.867,0c-0.18,-0.181 -0.224,-0.445 -0.133,-0.667l-0.827,-0.827l0,2.176c0.058,0.029 0.113,0.068 0.162,0.116c0.239,0.24 0.239,0.628 0,0.867c-0.24,0.24 -0.628,0.24 -0.867,0c-0.24,-0.24 -0.24,-0.627 0,-0.867c0.059,-0.059 0.128,-0.104 0.201,-0.134l0,-2.196c-0.073,-0.03 -0.142,-0.075 -0.201,-0.134c-0.181,-0.181 -0.225,-0.448 -0.132,-0.67l-0.907,-0.907l-2.395,2.394c-0.201,0.202 -0.201,0.528 0,0.729l3.493,3.493c0.201,0.201 0.527,0.201 0.729,0l3.476,-3.477c0.201,-0.201 0.201,-0.527 0,-0.728Z" style="fill:#f05133;fill-rule:nonzero;"/></svg>