<?xml version="1.0" encoding="UTF-8" standalone="no"?><!DOCTYPE svg PUBLIC "-//W3C//DTD SVG 1.1//EN" "http://www.w3.org/Graphics/SVG/1.1/DTD/svg11.dtd"><svg width="16px" height="16px" viewBox="0 0 16 16" version="1.1" xmlns="http://www.w3.org/2000/svg" xmlns:xlink="http://www.w3.org/1999/xlink" xml:space="preserve" xmlns:serif="http://www.serif.com/" style="fill-rule:evenodd;clip-rule:evenodd;stroke-linejoin:round;stroke-miterlimit:2;"><path d="M5.006,1l9.495,-0.001l0.5,0.5l-0.011,13.003l-0.5,0.5l-10.99,0l-0.5,-0.5l0.006,-6.502l1,0l-0.006,6.002l8.007,0l0,-12.003l-7.001,0.001l0,-1Zm7.987,0.999l0,12.003l0.997,0l0.011,-12.003l-1.008,0Zm-9.993,2.001l-3,0l0,-1l3,0l0,-3l1,0l0,3l3,0l0,1l-3,0l0,3l-1,0l0,-3Z" style="fill:#424242;"/></svg>