<?xml version="1.0" encoding="UTF-8" standalone="no"?><!DOCTYPE svg PUBLIC "-//W3C//DTD SVG 1.1//EN" "http://www.w3.org/Graphics/SVG/1.1/DTD/svg11.dtd"><svg width="16px" height="16px" viewBox="0 0 16 16" version="1.1" xmlns="http://www.w3.org/2000/svg" xmlns:xlink="http://www.w3.org/1999/xlink" xml:space="preserve" xmlns:serif="http://www.serif.com/" style="fill-rule:evenodd;clip-rule:evenodd;stroke-linejoin:round;stroke-miterlimit:2;"><path d="M4.682,3l-2.682,0l0,-1l3.5,0l0.5,0.5l0,3.5l-1,0l0,-2.001c-1.256,0.942 -2.001,2.425 -2.001,4.001c0,2.743 2.257,5 5,5c0,0 0.001,0 0.001,0c2.741,-0.004 4.995,-2.261 4.995,-5.002c0,-2.165 -1.405,-4.095 -3.465,-4.76l0.302,-0.953c2.479,0.793 4.173,3.112 4.173,5.715c0,3.292 -2.709,6 -6,6c-0.002,0 -0.003,0 -0.005,0c-3.291,-0.001 -5.999,-2.71 -5.999,-6.001c0,-2.027 1.027,-3.899 2.681,-4.999Z" style="fill:#424242;"/></svg>