<?xml version="1.0" encoding="UTF-8" standalone="no"?><!DOCTYPE svg PUBLIC "-//W3C//DTD SVG 1.1//EN" "http://www.w3.org/Graphics/SVG/1.1/DTD/svg11.dtd"><svg width="16px" height="16px" viewBox="0 0 16 16" version="1.1" xmlns="http://www.w3.org/2000/svg" xmlns:xlink="http://www.w3.org/1999/xlink" xml:space="preserve" xmlns:serif="http://www.serif.com/" style="fill-rule:evenodd;clip-rule:evenodd;stroke-linejoin:round;stroke-miterlimit:2;"><path d="M6.995,14.002l-6.495,0l-0.5,-0.5l0.011,-11.002l0.5,-0.5l4.996,0l0.354,0.146l0.852,0.853l6.788,0l0.5,0.5l-0.004,3.501l-1.007,0l0,-0.997l-6.282,0l-0.858,0.858l-0.354,0.146l-4.485,0l-0.011,5.995l5.995,0l0,1Zm-0.489,-10.003l-0.353,-0.146l-0.853,-0.853l-4.289,0l0,3.007l4.278,0l0.858,-0.857l0.353,-0.147l6.501,0l0,-1.004l-6.495,0Z" style="fill:#c5c5c5;"/><g><path d="M15.717,8.843l-1.647,-0.794c-0.191,-0.091 -0.419,-0.053 -0.569,0.097l-5.392,4.917c-0.145,0.132 -0.145,0.361 0,0.493l0.441,0.4c0.118,0.108 0.297,0.116 0.425,0.019l6.494,-4.927c0.218,-0.165 0.531,-0.01 0.531,0.264l0,-0.019c0,-0.192 -0.11,-0.367 -0.283,-0.45Z" style="fill:#0065a9;fill-rule:nonzero;"/><path d="M15.717,15.111l-1.647,0.794c-0.191,0.091 -0.419,0.053 -0.569,-0.097l-5.392,-4.917c-0.145,-0.132 -0.145,-0.361 0,-0.493l0.441,-0.4c0.118,-0.108 0.297,-0.116 0.425,-0.019l6.494,4.927c0.218,0.165 0.531,0.009 0.531,-0.264l0,0.019c0,0.192 -0.11,0.367 -0.283,0.45Z" style="fill:#007acc;fill-rule:nonzero;"/><path d="M14.07,15.905c-0.191,0.091 -0.419,0.053 -0.568,-0.097c0.184,0.184 0.499,0.054 0.499,-0.207l0,-7.248c0,-0.261 -0.315,-0.391 -0.499,-0.207c0.149,-0.15 0.377,-0.188 0.568,-0.097l1.647,0.792c0.173,0.084 0.283,0.259 0.283,0.451l0,5.37c0,0.192 -0.11,0.367 -0.283,0.451l-1.647,0.792Z" style="fill:#1f9cf0;fill-rule:nonzero;"/><path d="M13.669,15.92c0.126,0.049 0.27,0.046 0.397,-0.015l1.646,-0.792c0.173,-0.084 0.283,-0.259 0.283,-0.451l0,-5.37c0,-0.192 -0.11,-0.367 -0.283,-0.451l-1.646,-0.792c-0.167,-0.08 -0.362,-0.06 -0.508,0.046c-0.021,0.015 -0.041,0.032 -0.06,0.051l-3.151,2.875l-1.373,-1.042c-0.127,-0.097 -0.306,-0.089 -0.425,0.019l-0.44,0.4c-0.145,0.132 -0.145,0.361 0,0.493l1.19,1.086l-1.19,1.086c-0.145,0.132 -0.145,0.361 0,0.493l0.44,0.4c0.119,0.108 0.298,0.116 0.425,0.019l1.373,-1.042l3.151,2.875c0.05,0.05 0.109,0.087 0.171,0.112Zm0.329,-5.758l-2.391,1.815l2.391,1.815l0,-3.63Z" style="fill:url(#_Linear1);"/></g><defs><linearGradient id="_Linear1" x1="0" y1="0" x2="1" y2="0" gradientUnits="userSpaceOnUse" gradientTransform="matrix(4.87036e-16,7.9539,-7.9539,4.87036e-16,11.9976,8.00001)"><stop offset="0" style="stop-color:#fff;stop-opacity:0.25"/><stop offset="1" style="stop-color:#fff;stop-opacity:0"/></linearGradient></defs></svg>