<?xml version="1.0" encoding="UTF-8" standalone="no"?><!DOCTYPE svg PUBLIC "-//W3C//DTD SVG 1.1//EN" "http://www.w3.org/Graphics/SVG/1.1/DTD/svg11.dtd"><svg width="16px" height="16px" viewBox="0 0 16 16" version="1.1" xmlns="http://www.w3.org/2000/svg" xmlns:xlink="http://www.w3.org/1999/xlink" xml:space="preserve" xmlns:serif="http://www.serif.com/" style="fill-rule:evenodd;clip-rule:evenodd;stroke-linejoin:round;stroke-miterlimit:2;"><g transform="matrix(1,0,0,1,1,-4)"><path d="M13,15L13,16L12,16L12,15L13,15ZM11,10.5L10,10.5C10,9.12 11.12,8 12.5,8C13.88,8 15,9.12 15,10.5C15,11.424 14.497,12.232 13.75,12.665C13.293,12.922 13,13.439 13,14L12,14C12,13.073 12.49,12.236 13.241,11.804C13.694,11.546 14,11.058 14,10.5C14,9.672 13.328,9 12.5,9C11.672,9 11,9.672 11,10.5Z" style="fill:rgb(197,197,197);"/></g><g transform="matrix(1,0,0,1,-3,0)"><path d="M12.904,9.57L8.928,5.596L12.904,1.62L12.285,1L8,5.286L8,5.905L12.285,10.19L12.905,9.572L12.904,9.57ZM3,5.62L7.072,9.69L3,13.763L3.619,14.381L8,10L8,9.381L3.619,5L3,5.619L3,5.62Z" style="fill:rgb(197,197,197);"/></g></svg>