<?xml version="1.0" encoding="UTF-8" standalone="no"?><!DOCTYPE svg PUBLIC "-//W3C//DTD SVG 1.1//EN" "http://www.w3.org/Graphics/SVG/1.1/DTD/svg11.dtd"><svg width="16px" height="16px" viewBox="0 0 16 16" version="1.1" xmlns="http://www.w3.org/2000/svg" xmlns:xlink="http://www.w3.org/1999/xlink" xml:space="preserve" xmlns:serif="http://www.serif.com/" style="fill-rule:evenodd;clip-rule:evenodd;stroke-linejoin:round;stroke-miterlimit:2;"><path d="M10,15.001l-2,0l0,0.499l-1,0.5l-5.501,-0.999l-0.5,-0.5l0,-13.002l0.5,-0.5l5.501,-0.999l1,0.5l0,0.499l4.501,0l0.5,0.5l-0.005,5.501l-0.998,0l0.003,-5.001l-4.009,0l0.008,12.003l2,0l0,0.999Zm-3.008,-0.101l0.015,-13.8l-4.998,0.899l-0.01,12.002l4.993,0.899Z" style="fill:#c5c5c5;"/><path d="M13,15l0,1l-1,0l0,-1l1,0Zm-2,-4.5l-1,0c0,-1.38 1.12,-2.5 2.5,-2.5c1.38,0 2.5,1.12 2.5,2.5c0,0.924 -0.503,1.732 -1.25,2.165c-0.457,0.257 -0.75,0.774 -0.75,1.335l-1,0c0,-0.927 0.49,-1.764 1.241,-2.196c0.453,-0.258 0.759,-0.746 0.759,-1.304c0,-0.828 -0.672,-1.5 -1.5,-1.5c-0.828,0 -1.5,0.672 -1.5,1.5Z" style="fill:#c5c5c5;"/></svg>