<?xml version="1.0" encoding="UTF-8" standalone="no"?><!DOCTYPE svg PUBLIC "-//W3C//DTD SVG 1.1//EN" "http://www.w3.org/Graphics/SVG/1.1/DTD/svg11.dtd"><svg width="16px" height="16px" viewBox="0 0 16 16" version="1.1" xmlns="http://www.w3.org/2000/svg" xmlns:xlink="http://www.w3.org/1999/xlink" xml:space="preserve" xmlns:serif="http://www.serif.com/" style="fill-rule:evenodd;clip-rule:evenodd;stroke-linejoin:round;stroke-miterlimit:2;"><path d="M7,13L4,13L4,16L3,16L3,13L0,13L0,12L3,12L3,9L4,9L4,12L7,12L7,13ZM3,7L3,0.999L14.501,0.999L15.001,1.499L14.991,15L9,15L9,14.002L14.001,14.002L14.001,10.4L5.6,1.999L3.999,1.999L3.999,7L3,7ZM13.998,9.006L11.994,7L11.992,1.999L14.001,1.999L13.998,9.006ZM6.999,1.999L11.003,6.007L11.007,1.999L6.999,1.999Z" style="fill:rgb(197,197,197);"/></svg>