<?xml version="1.0" encoding="UTF-8" standalone="no"?><!DOCTYPE svg PUBLIC "-//W3C//DTD SVG 1.1//EN" "http://www.w3.org/Graphics/SVG/1.1/DTD/svg11.dtd"><svg width="16px" height="16px" viewBox="0 0 16 16" version="1.1" xmlns="http://www.w3.org/2000/svg" xmlns:xlink="http://www.w3.org/1999/xlink" xml:space="preserve" xmlns:serif="http://www.serif.com/" style="fill-rule:evenodd;clip-rule:evenodd;stroke-linejoin:round;stroke-miterlimit:2;"><path d="M7,13L4,13L4,16L3,16L3,13L0,13L0,12L3,12L3,9L4,9L4,12L7,12L7,13ZM2.999,7L2.999,1L6.999,1L7,1.001L14.5,1L15,1.5L14.994,9.001L14.99,9.001L14.99,15.001L9,15.001L9,14.004L14,14.004L14,9.401L6.599,2L3.999,2L3.999,7L2.999,7ZM13.997,8.007L11.994,6.001L11.992,2L14,2L13.997,8.007ZM7.999,2L11.002,5.008L11.006,2L7.999,2Z" style="fill:rgb(66,66,66);"/></svg>