<?xml version="1.0" encoding="UTF-8" standalone="no"?><!DOCTYPE svg PUBLIC "-//W3C//DTD SVG 1.1//EN" "http://www.w3.org/Graphics/SVG/1.1/DTD/svg11.dtd"><svg width="16px" height="16px" viewBox="0 0 16 16" version="1.1" xmlns="http://www.w3.org/2000/svg" xmlns:xlink="http://www.w3.org/1999/xlink" xml:space="preserve" xmlns:serif="http://www.serif.com/" style="fill-rule:evenodd;clip-rule:evenodd;stroke-linejoin:round;stroke-miterlimit:2;"><path d="M13.201,2L8.017,2L7.664,2.146L1,8.81L1,9.517L6.183,14.7L6.89,14.7L9.105,12.485C9.749,12.825 10.467,13.003 11.196,13.003C13.474,13.003 15.407,11.265 15.65,9C15.677,8.834 15.694,8.668 15.701,8.5C15.7,6.999 14.948,5.594 13.701,4.76L13.701,2.5L13.201,2ZM12.7,4.259C12.218,4.088 11.711,4.001 11.2,4C10.926,4 10.7,4.226 10.7,4.5C10.7,4.774 10.926,5 11.2,5C11.719,5 12.231,5.116 12.7,5.338L12.7,7.476L8.775,11.4C8.682,11.448 8.606,11.524 8.558,11.617L6.536,13.639L2.061,9.163L8.224,3L12.7,3L12.7,4.259ZM13.7,6.051C14.341,6.705 14.7,7.585 14.7,8.5C14.695,8.668 14.678,8.835 14.649,9C14.409,10.714 12.927,12.003 11.196,12.003C10.736,12.003 10.281,11.912 9.856,11.735L13.554,8.037L13.7,7.683L13.7,6.051Z" style="fill:rgb(66,66,66);"/></svg>