<?xml version="1.0" encoding="UTF-8" standalone="no"?><!DOCTYPE svg PUBLIC "-//W3C//DTD SVG 1.1//EN" "http://www.w3.org/Graphics/SVG/1.1/DTD/svg11.dtd"><svg width="16px" height="16px" viewBox="0 0 16 16" version="1.1" xmlns="http://www.w3.org/2000/svg" xmlns:xlink="http://www.w3.org/1999/xlink" xml:space="preserve" xmlns:serif="http://www.serif.com/" style="fill-rule:evenodd;clip-rule:evenodd;stroke-linejoin:round;stroke-miterlimit:2;"><g transform="matrix(1,0,0,1,0,-9)"><path d="M7,13L4,13L4,16L3,16L3,13L0,13L0,12L3,12L3,9L4,9L4,12L7,12L7,13Z" style="fill:rgb(197,197,197);"/></g><path d="M9,3L13.201,3L13.701,3.5L13.701,5.76C14.948,6.594 15.7,7.999 15.701,9.5C15.694,9.668 15.677,9.834 15.65,10C15.407,12.265 13.474,14.003 11.196,14.003C10.467,14.003 9.749,13.825 9.105,13.485L6.89,15.7L6.183,15.7L1,10.517L1,9.81L1.81,9L3.224,9L2.061,10.163L6.536,14.639L8.558,12.617C8.606,12.524 8.682,12.448 8.775,12.4L12.7,8.476L12.7,6.338C12.231,6.116 11.719,6 11.2,6C10.926,6 10.7,5.774 10.7,5.5C10.7,5.226 10.926,5 11.2,5C11.711,5.001 12.218,5.088 12.7,5.259L12.7,4L9,4L9,3ZM13.7,7.051C14.341,7.705 14.7,8.585 14.7,9.5C14.695,9.668 14.678,9.835 14.649,10C14.409,11.714 12.927,13.003 11.196,13.003C10.736,13.003 10.281,12.912 9.856,12.735L13.554,9.037L13.7,8.683L13.7,7.051ZM7,4L4,4L4,7L3,7L3,4L0,4L0,3L3,3L3,0L4,0L4,3L7,3L7,4Z" style="fill:rgb(197,197,197);"/></svg>